PathFileType	4	(X/Y/Z)	/Users/itak/Documents/Research/Walk-IL/dataset/trc/00223_00009.trc
DataRate	CameraRate	NumFrames	NumMarkers	Units	OrigDataRate	OrigDataStartFrame	OrigNumFrames
100.000000	100.000000	4	53	mm	100.000000	430	492
Frame#	Time	RPSI			LPSI			L3			STRN			T10			C7			CLAV			RBAK			LBAK			LSHO			LUPA			LAEL			LAOL			LWTS			LWPS			LFRA			LIFD			LHPS			LHTS			RSHO			RUPA			RAEL			RAOL			RWTS			RWPS			RFRA			RIFD			RHTS			RHPS			RBHD			LFHD			RFHD			LBHD			LHIP			RHIP			RASI			LASI			LKNE			LTHI			LANK			LTIP			LTOE			LMT1			LMT5			LHEE			RKNE			RANK			RTIP			RTOE			RMT1			RMT5			RHEE			RTHI			
		X1	Y1	Z1	X2	Y2	Z2	X3	Y3	Z3	X4	Y4	Z4	X5	Y5	Z5	X6	Y6	Z6	X7	Y7	Z7	X8	Y8	Z8	X9	Y9	Z9	X10	Y10	Z10	X11	Y11	Z11	X12	Y12	Z12	X13	Y13	Z13	X14	Y14	Z14	X15	Y15	Z15	X16	Y16	Z16	X17	Y17	Z17	X18	Y18	Z18	X19	Y19	Z19	X20	Y20	Z20	X21	Y21	Z21	X22	Y22	Z22	X23	Y23	Z23	X24	Y24	Z24	X25	Y25	Z25	X26	Y26	Z26	X27	Y27	Z27	X28	Y28	Z28	X29	Y29	Z29	X30	Y30	Z30	X31	Y31	Z31	X32	Y32	Z32	X33	Y33	Z33	X34	Y34	Z34	X35	Y35	Z35	X36	Y36	Z36	X37	Y37	Z37	X38	Y38	Z38	X39	Y39	Z39	X40	Y40	Z40	X41	Y41	Z41	X42	Y42	Z42	X43	Y43	Z43	X44	Y44	Z44	X45	Y45	Z45	X46	Y46	Z46	X47	Y47	Z47	X48	Y48	Z48	X49	Y49	Z49	X50	Y50	Z50	X51	Y51	Z51	X52	Y52	Z52	X53	Y53	Z53	

431	4.3	548.3153076171875	1043.739501953125	-78.54669952392578	542.1786499023438	1050.92919921875	41.31037521362305	547.698486328125	1128.420532226562	-4.337539672851562	300.1619262695312	1309.985107421875	-15.84026908874512	555.5189208984375	1256.000732421875	-14.71910953521729	487.2305603027344	1516.596801757812	-20.80284118652344	323.3060913085938	1427.638549804688	-20.68506813049316	568.9971313476562	1377.57470703125	-88.29718780517578	505.7297973632812	1480.842407226562	93.07138061523438	414.6427001953125	1482.120849609375	146.9865417480469	436.7799377441406	1366.040649414062	231.3749084472656	404.7743225097656	1158.637084960938	268.4250183105469	472.5982055664062	1131.747680664062	221.6125335693359	275.4797668457031	943.2789916992188	221.6051483154297	301.8197631835938	922.1348876953125	299.9328002929688	367.2183532714844	1056.536865234375	286.5486755371094	222.66943359375	757.5881958007812	234.1683197021484	263.2657165527344	840.1167602539062	298.1076354980469	218.4090881347656	855.5332641601562	248.3722839355469	432.5904541015625	1466.194946289062	-188.6383056640625	455.3580932617188	1399.347290039062	-252.8876647949219	478.8568725585938	1118.65771484375	-284.5368347167969	511.5502014160156	1112.732543945312	-195.0294647216797	343.8672180175781	902.422607421875	-247.0001678466797	402.1639099121094	888.7848510742188	-308.7351684570312	454.660400390625	1050.122924804688	-297.4110107421875	335.6424865722656	708.6665649414062	-240.5886688232422	308.18701171875	780.8102416992188	-263.7773132324219	364.8688049316406	780.4061279296875	-310.4242248535156	433.5145568847656	1676.248291015625	-83.62016296386719	237.5870971679688	1705.755615234375	27.79824256896973	229.1199035644531	1701.894897460938	-71.85630035400391	400.7179565429688	1683.96533203125	51.36245346069336	438.0396728515625	989.8914794921875	179.2192687988281	456.5708618164062	1001.712280273438	-188.9125671386719	358.1533508300781	1044.071533203125	-155.7027435302734	333.2654418945312	1032.81396484375	129.0838165283203	390.824951171875	505.9300231933594	140.4637145996094	398.1915588378906	650.0912475585938	167.7272796630859	491.9391784667969	34.83003234863281	141.7594909667969	446.419189453125	281.9325561523438	150.22412109375	280.016845703125	40.80203628540039	77.71531677246094	350.5007019042969	34.06628036499023	36.45683670043945	362.4314575195312	35.10377883911133	152.5564422607422	556.0234375	40.72362899780273	91.65836334228516	405.5298461914062	511.013916015625	-133.0692443847656	495.76123046875	30.07614326477051	-87.47927093505859	402.0065307617188	391.48095703125	-110.3612594604492	285.6108093261719	43.28578567504883	-41.86829376220703	340.8762512207031	40.39632415771484	0.02291529253125191	384.5043334960938	33.12128067016602	-112.0986175537109	557.712646484375	32.30009841918945	-26.61422538757324	392.7021484375	776.0564575195312	-188.3536529541016	
432	4.31	548.5097045898438	1043.712646484375	-77.80337524414062	542.3938598632812	1050.807373046875	42.0760383605957	548.0045166015625	1128.437622070312	-3.621942043304443	300.3826293945312	1310.026977539062	-15.0008020401001	555.7804565429688	1255.969848632812	-14.05306148529053	487.5198059082031	1516.613159179688	-20.225830078125	323.6328735351562	1427.708984375	-19.90434646606445	569.1796875	1377.608520507812	-87.83025360107422	506.1650695800781	1480.86376953125	93.62812042236328	415.1676940917969	1482.165893554688	147.6311950683594	437.2630615234375	1366.171020507812	232.1028137207031	404.5628356933594	1158.90234375	269.3831787109375	472.7227172851562	1131.798950195312	223.0587463378906	274.4802856445312	944.322509765625	221.3970642089844	300.0525817871094	922.9052124023438	299.8727416992188	366.3943176269531	1056.9228515625	287.1852416992188	220.5386657714844	758.8919677734375	233.3710021972656	261.1739196777344	841.14013671875	297.7531127929688	216.8108215332031	856.8365478515625	247.6660461425781	432.5570068359375	1466.150634765625	-187.9703063964844	455.20849609375	1399.28173828125	-252.2273559570312	478.3341369628906	1118.495361328125	-283.8121337890625	511.525390625	1112.656616210938	-194.489013671875	342.7424621582031	903.034912109375	-244.9226379394531	400.5051574707031	888.7705688476562	-306.8463745117188	453.8003234863281	1049.941162109375	-296.3981628417969	333.2181701660156	709.3342895507812	-237.6358642578125	306.2868041992188	781.5023803710938	-260.9522399902344	362.5948181152344	780.603515625	-307.9015197753906	434.056884765625	1676.145751953125	-82.84176635742188	238.2846984863281	1706.022583007812	28.53086280822754	229.7124938964844	1702.201171875	-71.12709808349609	401.3452758789062	1683.954833984375	51.98626708984375	438.1972351074219	989.71435546875	179.9579925537109	456.9111328125	1001.830078125	-188.1442108154297	358.2528381347656	1044.17626953125	-154.9677276611328	333.0318603515625	1033.477172851562	130.7720489501953	390.93359375	505.7960815429688	140.7553100585938	398.2800598144531	649.9469604492188	168.1599884033203	491.9401550292969	34.81099319458008	141.7156372070312	446.430419921875	281.8323364257812	150.3746337890625	279.9850769042969	40.76474761962891	77.69081878662109	350.4749450683594	34.02779769897461	36.41095352172852	362.4318542480469	35.09246444702148	152.5442047119141	556.0105590820312	40.69274139404297	91.61912536621094	406.0924682617188	511.0648803710938	-132.7249145507812	495.7138977050781	30.18140983581543	-87.40547180175781	402.5081176757812	391.5791320800781	-110.0845642089844	285.5289306640625	43.20061874389648	-41.84672546386719	340.8502197265625	40.34721374511719	0.04249810799956322	384.4719848632812	33.16634750366211	-112.0423202514648	557.6809692382812	32.35616683959961	-26.5311164855957	392.9840087890625	776.1417236328125	-187.8757171630859	
433	4.32	548.6785888671875	1043.6708984375	-77.05648040771484	542.5621948242188	1050.679931640625	42.84323883056641	548.2886962890625	1128.450927734375	-2.901631832122803	300.5552062988281	1310.075927734375	-14.1709508895874	556.0321044921875	1255.95751953125	-13.38145923614502	487.7962951660156	1516.62548828125	-19.6434326171875	323.939697265625	1427.788940429688	-19.12358283996582	569.343017578125	1377.649536132812	-87.34916687011719	506.5884399414062	1480.891845703125	94.18677520751953	415.69384765625	1482.223266601562	148.2842559814453	437.7900085449219	1366.313720703125	232.8254089355469	404.4383850097656	1159.161743164062	270.2871704101562	472.927001953125	1131.873779296875	224.4167938232422	273.6796569824219	945.3004150390625	221.1718139648438	298.5069274902344	923.6312866210938	299.7696228027344	365.7399291992188	1057.298217773438	287.7816162109375	218.7726135253906	760.095458984375	232.5333404541016	259.3772277832031	842.0897827148438	297.3658447265625	215.4784088134766	858.0244750976562	246.9369964599609	432.4971008300781	1466.111083984375	-187.2852478027344	455.0333251953125	1399.226928710938	-251.5604248046875	477.7303161621094	1118.348266601562	-283.115234375	511.4591674804688	1112.58056640625	-193.9849700927734	341.6178894042969	903.642578125	-242.8199615478516	398.7772827148438	888.7938232421875	-304.9913635253906	452.8580322265625	1049.78515625	-295.4051208496094	330.8663635253906	709.9932250976562	-234.7067260742188	304.4164123535156	782.1893920898438	-258.1069946289062	360.287353515625	780.849609375	-305.4294128417969	434.556884765625	1676.048950195312	-82.07110595703125	238.9664306640625	1706.273681640625	29.26406288146973	230.2678833007812	1702.47509765625	-70.41240692138672	401.9006652832031	1683.959228515625	52.64596939086914	438.2722778320312	989.5416259765625	180.6742706298828	457.2471923828125	1001.939819335938	-187.3904266357422	358.3489685058594	1044.323852539062	-154.2664184570312	332.7225952148438	1034.232421875	132.4906768798828	390.8969421386719	505.6667785644531	141.0075378417969	398.2054138183594	649.8108520507812	168.5409240722656	491.9349365234375	34.79461288452148	141.6829376220703	446.3463134765625	281.7372436523438	150.5179748535156	279.959716796875	40.72965621948242	77.66732025146484	350.4471740722656	33.99455261230469	36.36901473999023	362.4298095703125	35.07918930053711	152.5343475341797	555.9967651367188	40.67999649047852	91.58924102783203	406.5778198242188	511.1026306152344	-132.3880462646484	495.6589660644531	30.2897834777832	-87.32053375244141	402.9379272460938	391.6570129394531	-109.8043823242188	285.4422912597656	43.11867904663086	-41.82820892333984	340.8218688964844	40.30393218994141	0.05780774727463722	384.4404602050781	33.20827484130859	-111.9912490844727	557.6443481445312	32.40938186645508	-26.4433422088623	393.2613525390625	776.212158203125	-187.4513549804688	
434	4.33	548.8211669921875	1043.620239257812	-76.31997680664062	542.6852416992188	1050.555053710938	43.59710693359375	548.542724609375	1128.462158203125	-2.189506053924561	300.6979675292969	1310.136108398438	-13.34658908843994	556.2677612304688	1255.961791992188	-12.71158599853516	488.0642700195312	1516.633666992188	-19.05442047119141	324.2205200195312	1427.879638671875	-18.33805847167969	569.4896850585938	1377.696411132812	-86.85633087158203	506.9967956542969	1480.923583984375	94.75062561035156	416.2131042480469	1482.2958984375	148.9455718994141	438.3416137695312	1366.4697265625	233.5438232421875	404.4148559570312	1159.413452148438	271.1401062011719	473.2093811035156	1131.975708007812	225.6767272949219	273.08740234375	946.2053833007812	220.9411010742188	297.2091369628906	924.3055419921875	299.6324157714844	365.2510986328125	1057.657592773438	288.3307189941406	217.3993530273438	761.1832885742188	231.6592254638672	257.8956298828125	842.9531860351562	296.9476623535156	214.4097137451172	859.07958984375	246.1931304931641	432.4238891601562	1466.088012695312	-186.5813293457031	454.8390197753906	1399.188110351562	-250.8880767822266	477.0620422363281	1118.218627929688	-282.4297790527344	511.3430786132812	1112.51123046875	-193.4943084716797	340.4750671386719	904.24169921875	-240.7123413085938	397.0045471191406	888.859619140625	-303.1721801757812	451.8570556640625	1049.661254882812	-294.4205017089844	328.5869445800781	710.6458740234375	-231.8359832763672	302.5675048828125	782.8739013671875	-255.2795257568359	357.9723510742188	781.145751953125	-303.0223083496094	435.0171508789062	1675.963134765625	-81.30805969238281	239.6167755126953	1706.504760742188	30.00281715393066	230.7850952148438	1702.7099609375	-69.7138671875	402.3807373046875	1683.980346679688	53.35310745239258	438.2847900390625	989.3780517578125	181.3601379394531	457.5577087402344	1002.040344238281	-186.6646118164062	358.4617614746094	1044.507446289062	-153.5987548828125	332.3424987792969	1035.070556640625	134.2235107421875	390.7326049804688	505.54638671875	141.2228240966797	397.9886474609375	649.6820068359375	168.8682098388672	491.9247131347656	34.78194046020508	141.6593475341797	446.1774291992188	281.6457214355469	150.6477508544922	279.9389343261719	40.69586181640625	77.64452362060547	350.4182739257812	33.96598434448242	36.33092880249023	362.426025390625	35.06466674804688	152.5255889892578	555.982177734375	40.68453979492188	91.56645202636719	406.9773254394531	511.1354675292969	-132.0549926757812	495.5987243652344	30.39825057983398	-87.224609375	403.2911071777344	391.7190246582031	-109.518798828125	285.3539733886719	43.04169082641602	-41.81162261962891	340.7903747558594	40.26463317871094	0.07179637998342514	384.4102478027344	33.24891662597656	-111.9419555664062	557.6053466796875	32.46066665649414	-26.35134124755859	393.539794921875	776.279541015625	-187.0842895507812	
